<?xml version="1.0" encoding="UTF-8"?> <svg xmlns="http://www.w3.org/2000/svg" width="241" height="54" viewBox="0 0 241 54" fill="none"> <path d="M0.71167 26.8289L0.71167 53.6577H2.18502H3.65837L3.65837 26.8289L3.65837 2.20798e-05H2.18502H0.71167L0.71167 26.8289Z" fill="#3D2C11"></path> <path d="M5.76221 26.8294L5.76221 53.6582H6.39364H7.02508L7.02508 26.8294L7.02508 0.000510361H6.39364H5.76221L5.76221 26.8294Z" fill="#3D2C11"></path> <path d="M10.6047 26.8294V53.6582H11.2362H11.8676V26.8294L11.8676 0.000510361H11.2362H10.6047L10.6047 26.8294Z" fill="#3D2C11"></path> <path d="M19.0229 26.8294V53.6582H22.0749H25.1268V26.8294V0.000510361H22.0749H19.0229V26.8294Z" fill="#3D2C11"></path> <path d="M27.2314 26.8289V53.6577H27.8629H28.4943V26.8289V2.20798e-05H27.8629H27.2314V26.8289Z" fill="#3D2C11"></path> <path d="M30.5991 26.8289V53.6577H32.9144H35.2297V26.8289V2.20798e-05H32.9144H30.5991V26.8289Z" fill="#3D2C11"></path> <path d="M37.3342 26.8289V53.6577H39.5443H41.7543V26.8289V2.20798e-05H39.5443H37.3342V26.8289Z" fill="#3D2C11"></path> <path d="M43.8596 26.8289V53.6577H44.4911H45.1225V26.8289V2.20798e-05H44.4911H43.8596V26.8289Z" fill="#3D2C11"></path> <path d="M50.3853 26.8289V53.6577H51.8586H53.332V26.8289V2.20798e-05H51.8586H50.3853V26.8289Z" fill="#3D2C11"></path> <path d="M55.4358 26.8289V53.6577H56.0672H56.6987V26.8289V2.20798e-05H56.0672H55.4358V26.8289Z" fill="#3D2C11"></path> <path d="M63.6445 26.8289V53.6577H65.1179H66.5912V26.8289V2.20798e-05H65.1179H63.6445V26.8289Z" fill="#3D2C11"></path> <path d="M68.6965 26.8289V53.6577H69.328H69.9594V26.8289V2.20798e-05H69.328H68.6965V26.8289Z" fill="#3D2C11"></path> <path d="M73.7485 26.8294V53.6582H75.1166H76.4848V26.8294V0.000510361H75.1166H73.7485V26.8294Z" fill="#3D2C11"></path> <path d="M83.6401 26.8289V53.6577H84.2716H84.903V26.8289V2.20798e-05H84.2716H83.6401V26.8289Z" fill="#3D2C11"></path> <path d="M88.6924 26.8294V53.6582H89.3238H89.9553V26.8294V0.000510361H89.3238H88.6924V26.8294Z" fill="#3D2C11"></path> <path d="M92.0596 26.8289V53.6577H92.5858H93.112V26.8289V2.20798e-05H92.5858H92.0596V26.8289Z" fill="#3D2C11"></path> <path d="M100.268 26.8289V53.6577H101.742H103.215V26.8289V2.20798e-05H101.742H100.268V26.8289Z" fill="#3D2C11"></path> <path d="M105.109 26.8289V53.6577H105.74H106.372V26.8289V2.20798e-05H105.74H105.109V26.8289Z" fill="#3D2C11"></path> <path d="M110.161 26.8289V53.6577H110.792H111.424V26.8289V2.20798e-05H110.792H110.161V26.8289Z" fill="#3D2C11"></path> <path d="M113.529 26.8289V53.6577H114.16H114.792V26.8289V2.20798e-05H114.16H113.529V26.8289Z" fill="#3D2C11"></path> <path d="M118.369 26.8289V53.6577H121.527H124.684V26.8289V2.20798e-05H121.527H118.369V26.8289Z" fill="#3D2C11"></path> <path d="M128.473 26.8294V53.6582H129.104H129.736V26.8294V0.000510361H129.104H128.473V26.8294Z" fill="#3D2C11"></path> <path d="M131.84 26.8289V53.6577H133.208H134.577V26.8289V2.20798e-05H133.208H131.84V26.8289Z" fill="#3D2C11"></path> <path d="M138.365 26.8289V53.6577H138.996H139.627V26.8289V2.20798e-05H138.996H138.365V26.8289Z" fill="#3D2C11"></path> <path d="M146.574 26.8289V53.6577H147.205H147.837V26.8289V2.20798e-05H147.205H146.574V26.8289Z" fill="#3D2C11"></path> <path d="M154.782 26.8294V53.6582H155.414H156.045V26.8294V0.000510361H155.414H154.782V26.8294Z" fill="#3D2C11"></path> <path d="M159.833 26.8289V53.6577H161.306H162.78V26.8289V2.20798e-05H161.306H159.833V26.8289Z" fill="#3D2C11"></path> <path d="M164.885 26.8289V53.6577H165.516H166.148V26.8289V2.20798e-05H165.516H164.885V26.8289Z" fill="#3D2C11"></path> <path d="M173.094 26.8289V53.6577H174.567H176.04V26.8289V2.20798e-05H174.567H173.094V26.8289Z" fill="#3D2C11"></path> <path d="M178.145 26.8289V53.6577H178.776H179.408V26.8289V2.20798e-05H178.776H178.145V26.8289Z" fill="#3D2C11"></path> <path d="M183.092 26.8289V53.6577H183.681H184.249V26.8289V2.20798e-05H183.681H183.092V26.8289Z" fill="#3D2C11"></path> <path d="M188.037 26.8294V53.6582H188.669H189.3V26.8294V0.000510361H188.669H188.037V26.8294Z" fill="#3D2C11"></path> <path d="M191.405 26.8289V53.6577H192.878H194.352V26.8289V2.20798e-05H192.878H191.405V26.8289Z" fill="#3D2C11"></path> <path d="M201.298 26.8289V53.6577H201.929H202.561V26.8289V2.20798e-05H201.929H201.298V26.8289Z" fill="#3D2C11"></path> <path d="M204.666 26.8294V53.6582H207.717H210.769V26.8294V0.000510361H207.717H204.666V26.8294Z" fill="#3D2C11"></path> <path d="M212.874 26.8289V53.6577H215.19H217.505V26.8289V2.20798e-05H215.19H212.874V26.8289Z" fill="#3D2C11"></path> <path d="M219.609 26.8289V53.6577H221.083H222.556V26.8289V2.20798e-05H221.083H219.609V26.8289Z" fill="#3D2C11"></path> <path d="M227.818 26.8289V53.6577H230.133H232.448V26.8289V2.20798e-05H230.133H227.818V26.8289Z" fill="#3D2C11"></path> <path d="M234.343 26.8294V53.6582H234.975H235.606V26.8294V0.000510361H234.975H234.343V26.8294Z" fill="#3D2C11"></path> <path d="M237.711 26.8289V53.6577H239.184H240.658V26.8289V2.20798e-05H239.184H237.711V26.8289Z" fill="#3D2C11"></path> </svg> 